<mxfile host="Electron" modified="2023-05-05T04:15:50.840Z" agent="Mozilla/5.0 (Windows NT 10.0; Win64; x64) AppleWebKit/537.36 (KHTML, like Gecko) draw.io/21.2.1 Chrome/112.0.5615.87 Electron/24.1.2 Safari/537.36" etag="7f-U21r1e1Wf61HY02TY" version="21.2.1" type="device">
  <diagram name="Page-1" id="VMLhR4YjnI6ts-bFcSgv">
    <mxGraphModel dx="1837" dy="602" grid="1" gridSize="10" guides="1" tooltips="1" connect="1" arrows="1" fold="1" page="1" pageScale="1" pageWidth="850" pageHeight="1100" math="0" shadow="0">
      <root>
        <mxCell id="0" />
        <mxCell id="1" parent="0" />
        <mxCell id="zFQzpyj2iHT7_sRz1Ful-4" style="edgeStyle=orthogonalEdgeStyle;rounded=0;orthogonalLoop=1;jettySize=auto;html=1;" edge="1" parent="1" source="zFQzpyj2iHT7_sRz1Ful-1" target="zFQzpyj2iHT7_sRz1Ful-2">
          <mxGeometry relative="1" as="geometry" />
        </mxCell>
        <mxCell id="zFQzpyj2iHT7_sRz1Ful-1" value="data/MIR.csv" style="rounded=0;whiteSpace=wrap;html=1;align=left;" vertex="1" parent="1">
          <mxGeometry x="120" y="230" width="80" height="40" as="geometry" />
        </mxCell>
        <mxCell id="zFQzpyj2iHT7_sRz1Ful-5" style="edgeStyle=orthogonalEdgeStyle;rounded=0;orthogonalLoop=1;jettySize=auto;html=1;" edge="1" parent="1" source="zFQzpyj2iHT7_sRz1Ful-2" target="zFQzpyj2iHT7_sRz1Ful-3">
          <mxGeometry relative="1" as="geometry" />
        </mxCell>
        <mxCell id="zFQzpyj2iHT7_sRz1Ful-2" value="&lt;span style=&quot;color: rgb(0, 0, 0); font-family: Helvetica; font-size: 12px; font-style: normal; font-variant-ligatures: normal; font-variant-caps: normal; font-weight: 400; letter-spacing: normal; orphans: 2; text-align: left; text-indent: 0px; text-transform: none; widows: 2; word-spacing: 0px; -webkit-text-stroke-width: 0px; text-decoration-thickness: initial; text-decoration-style: initial; text-decoration-color: initial; float: none; display: inline !important;&quot;&gt;mass_&lt;/span&gt;&lt;br style=&quot;border-color: var(--border-color); color: rgb(0, 0, 0); font-family: Helvetica; font-size: 12px; font-style: normal; font-variant-ligatures: normal; font-variant-caps: normal; font-weight: 400; letter-spacing: normal; orphans: 2; text-align: left; text-indent: 0px; text-transform: none; widows: 2; word-spacing: 0px; -webkit-text-stroke-width: 0px; text-decoration-thickness: initial; text-decoration-style: initial; text-decoration-color: initial;&quot;&gt;&lt;span style=&quot;color: rgb(0, 0, 0); font-family: Helvetica; font-size: 12px; font-style: normal; font-variant-ligatures: normal; font-variant-caps: normal; font-weight: 400; letter-spacing: normal; orphans: 2; text-align: left; text-indent: 0px; text-transform: none; widows: 2; word-spacing: 0px; -webkit-text-stroke-width: 0px; text-decoration-thickness: initial; text-decoration-style: initial; text-decoration-color: initial; float: none; display: inline !important;&quot;&gt;panasonic.py&lt;/span&gt;" style="ellipse;whiteSpace=wrap;html=1;fillColor=#dae8fc;strokeColor=#6c8ebf;" vertex="1" parent="1">
          <mxGeometry x="260" y="222.5" width="80" height="55" as="geometry" />
        </mxCell>
        <mxCell id="zFQzpyj2iHT7_sRz1Ful-16" style="edgeStyle=orthogonalEdgeStyle;rounded=0;orthogonalLoop=1;jettySize=auto;html=1;entryX=0;entryY=0.5;entryDx=0;entryDy=0;" edge="1" parent="1" source="zFQzpyj2iHT7_sRz1Ful-3" target="zFQzpyj2iHT7_sRz1Ful-14">
          <mxGeometry relative="1" as="geometry" />
        </mxCell>
        <mxCell id="zFQzpyj2iHT7_sRz1Ful-3" value="Text files &quot;outs/{v}-{s+start_from}_{e-1+start_from}.log&lt;span style=&quot;border-color: var(--border-color); text-align: center; background-color: initial;&quot;&gt;&quot;,&lt;br style=&quot;border-color: var(--border-color);&quot;&gt;E.g. &quot;outs/MIR-540-515.log&quot;&lt;/span&gt;" style="rounded=0;whiteSpace=wrap;html=1;align=left;" vertex="1" parent="1">
          <mxGeometry x="410" y="220" width="160" height="60" as="geometry" />
        </mxCell>
        <mxCell id="zFQzpyj2iHT7_sRz1Ful-9" style="edgeStyle=orthogonalEdgeStyle;rounded=0;orthogonalLoop=1;jettySize=auto;html=1;entryX=0.5;entryY=0;entryDx=0;entryDy=0;" edge="1" parent="1" source="zFQzpyj2iHT7_sRz1Ful-6" target="zFQzpyj2iHT7_sRz1Ful-1">
          <mxGeometry relative="1" as="geometry" />
        </mxCell>
        <mxCell id="zFQzpyj2iHT7_sRz1Ful-6" value="&lt;div style=&quot;text-align: left;&quot;&gt;notebooks/&lt;br&gt;EDA.ipynb&lt;/div&gt;" style="ellipse;whiteSpace=wrap;html=1;fillColor=#f5f5f5;fontColor=#333333;strokeColor=#666666;" vertex="1" parent="1">
          <mxGeometry x="120" y="140" width="80" height="55" as="geometry" />
        </mxCell>
        <mxCell id="zFQzpyj2iHT7_sRz1Ful-8" style="edgeStyle=orthogonalEdgeStyle;rounded=0;orthogonalLoop=1;jettySize=auto;html=1;" edge="1" parent="1" source="zFQzpyj2iHT7_sRz1Ful-7" target="zFQzpyj2iHT7_sRz1Ful-6">
          <mxGeometry relative="1" as="geometry" />
        </mxCell>
        <mxCell id="zFQzpyj2iHT7_sRz1Ful-7" value="MarketIntelligenceReport.csv" style="rounded=0;whiteSpace=wrap;html=1;align=left;" vertex="1" parent="1">
          <mxGeometry x="240" y="145" width="160" height="45" as="geometry" />
        </mxCell>
        <mxCell id="zFQzpyj2iHT7_sRz1Ful-11" value="&lt;h1&gt;Pre-processing&lt;/h1&gt;" style="text;html=1;strokeColor=none;fillColor=none;spacing=5;spacingTop=-20;whiteSpace=wrap;overflow=hidden;rounded=0;" vertex="1" parent="1">
          <mxGeometry x="-100" y="150" width="210" height="40" as="geometry" />
        </mxCell>
        <mxCell id="zFQzpyj2iHT7_sRz1Ful-12" value="&lt;h1&gt;Extraction&lt;/h1&gt;" style="text;html=1;strokeColor=none;fillColor=none;spacing=5;spacingTop=-20;whiteSpace=wrap;overflow=hidden;rounded=0;" vertex="1" parent="1">
          <mxGeometry x="-100" y="237.5" width="210" height="40" as="geometry" />
        </mxCell>
        <mxCell id="zFQzpyj2iHT7_sRz1Ful-13" value="&lt;h1&gt;Clustering&lt;/h1&gt;" style="text;html=1;strokeColor=none;fillColor=none;spacing=5;spacingTop=-20;whiteSpace=wrap;overflow=hidden;rounded=0;" vertex="1" parent="1">
          <mxGeometry x="-100" y="327.5" width="210" height="40" as="geometry" />
        </mxCell>
        <mxCell id="zFQzpyj2iHT7_sRz1Ful-35" style="edgeStyle=orthogonalEdgeStyle;rounded=0;orthogonalLoop=1;jettySize=auto;html=1;" edge="1" parent="1" source="zFQzpyj2iHT7_sRz1Ful-14" target="zFQzpyj2iHT7_sRz1Ful-15">
          <mxGeometry relative="1" as="geometry" />
        </mxCell>
        <mxCell id="zFQzpyj2iHT7_sRz1Ful-14" value="&lt;span style=&quot;color: rgb(0, 0, 0); font-family: Helvetica; font-size: 12px; font-style: normal; font-variant-ligatures: normal; font-variant-caps: normal; font-weight: 400; letter-spacing: normal; orphans: 2; text-align: left; text-indent: 0px; text-transform: none; widows: 2; word-spacing: 0px; -webkit-text-stroke-width: 0px; text-decoration-thickness: initial; text-decoration-style: initial; text-decoration-color: initial; float: none; display: inline !important;&quot;&gt;process&lt;br&gt;_extraction.py&lt;/span&gt;" style="ellipse;whiteSpace=wrap;html=1;fillColor=#f5f5f5;fontColor=#333333;strokeColor=#666666;" vertex="1" parent="1">
          <mxGeometry x="630" y="222.5" width="80" height="55" as="geometry" />
        </mxCell>
        <mxCell id="zFQzpyj2iHT7_sRz1Ful-34" style="edgeStyle=orthogonalEdgeStyle;rounded=0;orthogonalLoop=1;jettySize=auto;html=1;entryX=1;entryY=0.5;entryDx=0;entryDy=0;" edge="1" parent="1" source="zFQzpyj2iHT7_sRz1Ful-15" target="zFQzpyj2iHT7_sRz1Ful-18">
          <mxGeometry relative="1" as="geometry" />
        </mxCell>
        <mxCell id="zFQzpyj2iHT7_sRz1Ful-15" value="MIR_rels.obj" style="rounded=0;whiteSpace=wrap;html=1;align=left;" vertex="1" parent="1">
          <mxGeometry x="630" y="332.5" width="80" height="40" as="geometry" />
        </mxCell>
        <mxCell id="zFQzpyj2iHT7_sRz1Ful-32" style="rounded=0;orthogonalLoop=1;jettySize=auto;html=1;entryX=1;entryY=0.5;entryDx=0;entryDy=0;" edge="1" parent="1" source="zFQzpyj2iHT7_sRz1Ful-18" target="zFQzpyj2iHT7_sRz1Ful-20">
          <mxGeometry relative="1" as="geometry" />
        </mxCell>
        <mxCell id="zFQzpyj2iHT7_sRz1Ful-33" style="rounded=0;orthogonalLoop=1;jettySize=auto;html=1;entryX=1;entryY=0.5;entryDx=0;entryDy=0;" edge="1" parent="1" source="zFQzpyj2iHT7_sRz1Ful-18" target="zFQzpyj2iHT7_sRz1Ful-21">
          <mxGeometry relative="1" as="geometry" />
        </mxCell>
        <mxCell id="zFQzpyj2iHT7_sRz1Ful-18" value="&lt;div style=&quot;text-align: left;&quot;&gt;&lt;span style=&quot;background-color: initial;&quot;&gt;convert_to&lt;br&gt;_graph.py&lt;/span&gt;&lt;/div&gt;" style="ellipse;whiteSpace=wrap;html=1;fillColor=#f5f5f5;fontColor=#333333;strokeColor=#666666;" vertex="1" parent="1">
          <mxGeometry x="530" y="320" width="80" height="55" as="geometry" />
        </mxCell>
        <mxCell id="zFQzpyj2iHT7_sRz1Ful-26" style="edgeStyle=orthogonalEdgeStyle;rounded=0;orthogonalLoop=1;jettySize=auto;html=1;entryX=1;entryY=0.5;entryDx=0;entryDy=0;" edge="1" parent="1" source="zFQzpyj2iHT7_sRz1Ful-19" target="zFQzpyj2iHT7_sRz1Ful-23">
          <mxGeometry relative="1" as="geometry" />
        </mxCell>
        <mxCell id="zFQzpyj2iHT7_sRz1Ful-19" value="&lt;div style=&quot;text-align: left;&quot;&gt;get_nodes&lt;br&gt;_infos.py&lt;/div&gt;" style="ellipse;whiteSpace=wrap;html=1;fillColor=#f5f5f5;fontColor=#333333;strokeColor=#666666;" vertex="1" parent="1">
          <mxGeometry x="340" y="320" width="80" height="55" as="geometry" />
        </mxCell>
        <mxCell id="zFQzpyj2iHT7_sRz1Ful-30" style="rounded=0;orthogonalLoop=1;jettySize=auto;html=1;" edge="1" parent="1" source="zFQzpyj2iHT7_sRz1Ful-20" target="zFQzpyj2iHT7_sRz1Ful-19">
          <mxGeometry relative="1" as="geometry" />
        </mxCell>
        <mxCell id="zFQzpyj2iHT7_sRz1Ful-20" value="graph.csv" style="rounded=0;whiteSpace=wrap;html=1;align=left;" vertex="1" parent="1">
          <mxGeometry x="440" y="315" width="70" height="30" as="geometry" />
        </mxCell>
        <mxCell id="zFQzpyj2iHT7_sRz1Ful-21" value="node_df.csv" style="rounded=0;whiteSpace=wrap;html=1;align=left;" vertex="1" parent="1">
          <mxGeometry x="440" y="350" width="70" height="30" as="geometry" />
        </mxCell>
        <mxCell id="zFQzpyj2iHT7_sRz1Ful-28" style="edgeStyle=orthogonalEdgeStyle;rounded=0;orthogonalLoop=1;jettySize=auto;html=1;" edge="1" parent="1" source="zFQzpyj2iHT7_sRz1Ful-23" target="zFQzpyj2iHT7_sRz1Ful-27">
          <mxGeometry relative="1" as="geometry" />
        </mxCell>
        <mxCell id="zFQzpyj2iHT7_sRz1Ful-43" style="edgeStyle=orthogonalEdgeStyle;rounded=0;orthogonalLoop=1;jettySize=auto;html=1;entryX=0;entryY=0.5;entryDx=0;entryDy=0;" edge="1" parent="1" source="zFQzpyj2iHT7_sRz1Ful-23" target="zFQzpyj2iHT7_sRz1Ful-40">
          <mxGeometry relative="1" as="geometry" />
        </mxCell>
        <mxCell id="zFQzpyj2iHT7_sRz1Ful-23" value="nodes_extracted&lt;br&gt;_infos.pkl" style="rounded=0;whiteSpace=wrap;html=1;align=left;" vertex="1" parent="1">
          <mxGeometry x="220" y="322.5" width="100" height="50" as="geometry" />
        </mxCell>
        <mxCell id="zFQzpyj2iHT7_sRz1Ful-41" style="edgeStyle=orthogonalEdgeStyle;rounded=0;orthogonalLoop=1;jettySize=auto;html=1;entryX=0;entryY=0.5;entryDx=0;entryDy=0;" edge="1" parent="1" source="zFQzpyj2iHT7_sRz1Ful-24" target="zFQzpyj2iHT7_sRz1Ful-40">
          <mxGeometry relative="1" as="geometry">
            <Array as="points">
              <mxPoint x="270" y="425" />
              <mxPoint x="270" y="448" />
            </Array>
          </mxGeometry>
        </mxCell>
        <mxCell id="zFQzpyj2iHT7_sRz1Ful-24" value="graph_clustered.csv" style="rounded=0;whiteSpace=wrap;html=1;align=left;" vertex="1" parent="1">
          <mxGeometry x="120" y="410" width="120" height="30" as="geometry" />
        </mxCell>
        <mxCell id="zFQzpyj2iHT7_sRz1Ful-25" value="node_df_clustered.csv" style="rounded=0;whiteSpace=wrap;html=1;align=left;" vertex="1" parent="1">
          <mxGeometry x="120" y="450" width="130" height="30" as="geometry" />
        </mxCell>
        <mxCell id="zFQzpyj2iHT7_sRz1Ful-36" style="edgeStyle=orthogonalEdgeStyle;rounded=0;orthogonalLoop=1;jettySize=auto;html=1;entryX=0;entryY=0.5;entryDx=0;entryDy=0;" edge="1" parent="1" source="zFQzpyj2iHT7_sRz1Ful-27" target="zFQzpyj2iHT7_sRz1Ful-24">
          <mxGeometry relative="1" as="geometry" />
        </mxCell>
        <mxCell id="zFQzpyj2iHT7_sRz1Ful-37" style="edgeStyle=orthogonalEdgeStyle;rounded=0;orthogonalLoop=1;jettySize=auto;html=1;entryX=0;entryY=0.5;entryDx=0;entryDy=0;" edge="1" parent="1" source="zFQzpyj2iHT7_sRz1Ful-27" target="zFQzpyj2iHT7_sRz1Ful-25">
          <mxGeometry relative="1" as="geometry">
            <Array as="points">
              <mxPoint x="160" y="400" />
              <mxPoint x="100" y="400" />
              <mxPoint x="100" y="465" />
            </Array>
          </mxGeometry>
        </mxCell>
        <mxCell id="zFQzpyj2iHT7_sRz1Ful-27" value="&lt;div style=&quot;text-align: left;&quot;&gt;cluster&lt;br&gt;_nodes.py&lt;/div&gt;" style="ellipse;whiteSpace=wrap;html=1;fillColor=#f5f5f5;fontColor=#333333;strokeColor=#666666;" vertex="1" parent="1">
          <mxGeometry x="120" y="320" width="80" height="55" as="geometry" />
        </mxCell>
        <mxCell id="zFQzpyj2iHT7_sRz1Ful-39" value="&lt;h1&gt;Visualization&lt;/h1&gt;" style="text;html=1;strokeColor=none;fillColor=none;spacing=5;spacingTop=-20;whiteSpace=wrap;overflow=hidden;rounded=0;" vertex="1" parent="1">
          <mxGeometry x="-100" y="420" width="210" height="40" as="geometry" />
        </mxCell>
        <mxCell id="zFQzpyj2iHT7_sRz1Ful-46" style="edgeStyle=orthogonalEdgeStyle;rounded=0;orthogonalLoop=1;jettySize=auto;html=1;entryX=0;entryY=0.5;entryDx=0;entryDy=0;" edge="1" parent="1" source="zFQzpyj2iHT7_sRz1Ful-40" target="zFQzpyj2iHT7_sRz1Ful-45">
          <mxGeometry relative="1" as="geometry" />
        </mxCell>
        <mxCell id="zFQzpyj2iHT7_sRz1Ful-40" value="&lt;div style=&quot;text-align: left;&quot;&gt;EDA_Check&lt;br&gt;_Clustering.ipynb&lt;/div&gt;" style="ellipse;whiteSpace=wrap;html=1;fillColor=#f5f5f5;fontColor=#333333;strokeColor=#666666;" vertex="1" parent="1">
          <mxGeometry x="320" y="420" width="120" height="55" as="geometry" />
        </mxCell>
        <mxCell id="zFQzpyj2iHT7_sRz1Ful-48" style="edgeStyle=orthogonalEdgeStyle;rounded=0;orthogonalLoop=1;jettySize=auto;html=1;entryX=0;entryY=0.5;entryDx=0;entryDy=0;" edge="1" parent="1" source="zFQzpyj2iHT7_sRz1Ful-45" target="zFQzpyj2iHT7_sRz1Ful-47">
          <mxGeometry relative="1" as="geometry" />
        </mxCell>
        <mxCell id="zFQzpyj2iHT7_sRz1Ful-45" value="graph.gml" style="rounded=0;whiteSpace=wrap;html=1;align=left;" vertex="1" parent="1">
          <mxGeometry x="470" y="432.5" width="70" height="30" as="geometry" />
        </mxCell>
        <mxCell id="zFQzpyj2iHT7_sRz1Ful-47" value="&lt;div style=&quot;text-align: left;&quot;&gt;Cytoscape&lt;/div&gt;" style="ellipse;whiteSpace=wrap;html=1;fillColor=#ffe6cc;strokeColor=#d79b00;" vertex="1" parent="1">
          <mxGeometry x="570" y="420" width="80" height="55" as="geometry" />
        </mxCell>
      </root>
    </mxGraphModel>
  </diagram>
</mxfile>
